<svg width="102" height="20" viewBox="0 0 102 20" fill="none" xmlns="http://www.w3.org/2000/svg">
<path d="M0 19.0253V0H1.39827V8.59206C2.79654 7.18411 4.41558 6.49819 6.18182 6.49819C7.91125 6.49819 9.34632 7.07581 10.4502 8.26715C11.5541 9.45848 12.1061 10.9747 12.1061 12.852C12.1061 15.018 11.4437 16.7509 10.0823 18.0505C8.72078 19.3502 6.95455 20 4.70996 20C3.2381 20 1.65584 19.6751 0 19.0253ZM1.39827 10.1444V18.0144C2.50216 18.4116 3.56926 18.6282 4.63636 18.6282C6.329 18.6282 7.76407 18.0866 8.86797 17.0036C9.97186 15.9206 10.5606 14.5487 10.5606 12.8881C10.5606 11.3357 10.119 10.0722 9.27273 9.09747C8.38961 8.12274 7.32251 7.61733 5.99784 7.61733C4.45238 7.61733 2.90693 8.44765 1.39827 10.1444Z" fill="black"/>
<path d="M26.8612 12.7797H16.411C16.3742 12.9963 16.3742 13.249 16.3742 13.4656C16.3742 14.9097 16.8894 16.1371 17.9565 17.1479C19.0236 18.1588 20.2746 18.6642 21.7097 18.6642C23.4023 18.6642 25.0582 18.0144 26.6404 16.7147V18.2671C25.1318 19.4223 23.4023 19.9999 21.5257 19.9999C19.6123 19.9999 18.03 19.3501 16.779 18.0505C15.5279 16.7508 14.9023 15.0902 14.9023 13.1046C14.9023 11.1913 15.4911 9.63892 16.6318 8.37538C17.7725 7.11184 19.2443 6.49812 20.9738 6.49812C22.6296 6.49812 23.9911 7.07574 25.1318 8.19487C26.3093 9.31401 26.8612 10.8303 26.8612 12.7797ZM16.595 11.6606H25.2054C24.6902 9.1335 23.292 7.83386 21.0106 7.83386C19.9067 7.83386 18.9868 8.15877 18.1772 8.84469C17.3677 9.49451 16.8526 10.4331 16.595 11.6606Z" fill="black"/>
<path d="M39.5193 8.01468L38.7097 9.31431C37.6058 8.30348 36.7227 7.83417 36.0236 7.83417C34.6989 7.83417 33.2639 9.06161 31.7552 11.5526V19.7475H30.3569V6.75114H31.7552V10.1807H31.8288C33.411 7.72587 34.9565 6.49843 36.4652 6.49843C37.3115 6.46233 38.3418 7.00385 39.5193 8.01468Z" fill="black"/>
<path d="M42.9415 6.7506V8.98887H43.0151C44.119 7.32822 45.5909 6.46179 47.3939 6.46179C48.9026 6.46179 50.0801 6.93111 51 7.86973C51.8831 8.80836 52.3247 10.108 52.3247 11.8048V19.747H50.9264V12.3463C50.9264 9.34988 49.7121 7.83363 47.3203 7.83363C45.5541 7.83363 44.119 8.77226 42.9783 10.6134V19.747H41.5801V6.7506H42.9415Z" fill="black"/>
<path d="M67.7054 12.7797H57.2552C57.2184 12.9963 57.2184 13.249 57.2184 13.4656C57.2184 14.9097 57.7336 16.1371 58.8007 17.1479C59.8678 18.1588 61.1189 18.6642 62.5539 18.6642C64.2466 18.6642 65.9024 18.0144 67.4847 16.7147V18.2671C65.976 19.4223 64.2466 19.9999 62.3699 19.9999C60.4565 19.9999 58.8743 19.3501 57.6232 18.0505C56.3721 16.7508 55.7466 15.0902 55.7466 13.1046C55.7466 11.1913 56.3353 9.63892 57.476 8.37538C58.6167 7.11184 60.0886 6.49812 61.818 6.49812C63.4738 6.49812 64.8353 7.07574 65.976 8.19487C67.1535 9.31401 67.7054 10.8303 67.7054 12.7797ZM57.4392 11.6606H66.0496C65.5344 9.1335 64.1362 7.83386 61.8548 7.83386C60.7509 7.83386 59.831 8.15877 59.0215 8.84469C58.2119 9.49451 57.6968 10.4331 57.4392 11.6606Z" fill="black"/>
<path d="M73.7034 2.45473V6.75075H77.4198V7.86989H73.7034V15.5955C73.7034 16.823 73.8138 17.6533 73.9977 18.0504C74.2185 18.4475 74.7705 18.628 75.6536 18.628C76.3527 18.628 77.1622 18.4114 78.0822 17.9782V19.3139C77.1622 19.7471 76.2423 19.9637 75.3592 19.9637C74.4761 19.9637 73.7402 19.711 73.1882 19.2417C72.5995 18.7363 72.3051 18.0865 72.3051 17.2201V7.86989H68.7358V6.75075H72.3051V3.64606L73.2618 2.41862H73.7034" fill="black"/>
<path d="M84.1907 2.45473V6.75075H87.9071V7.86989H84.1907V15.5955C84.1907 16.823 84.3011 17.6533 84.4851 18.0504C84.7058 18.4475 85.2578 18.628 86.1409 18.628C86.84 18.628 87.6496 18.4114 88.5695 17.9782V19.3139C87.6496 19.7471 86.7296 19.9637 85.8465 19.9637C84.9634 19.9637 84.2275 19.711 83.6755 19.2417C83.0868 18.7363 82.7924 18.0865 82.7924 17.2201V7.86989H79.2231V6.75075H82.7924V3.64606L83.7491 2.41862H84.1907" fill="black"/>
<path d="M102 12.7797H91.5497C91.5129 12.9963 91.5129 13.249 91.5129 13.4656C91.5129 14.9097 92.028 16.1371 93.0951 17.1479C94.1622 18.1588 95.4133 18.6642 96.8484 18.6642C98.541 18.6642 100.16 18.0144 101.779 16.7147V18.2671C100.27 19.4223 98.541 19.9999 96.6644 19.9999C94.751 19.9999 93.1687 19.3501 91.9176 18.0505C90.6666 16.7508 90.041 15.0902 90.041 13.1046C90.041 11.1913 90.6298 9.63892 91.7705 8.37538C92.9111 7.11184 94.383 6.49812 96.1124 6.49812C97.7683 6.49812 99.1298 7.07574 100.27 8.19487C101.448 9.31401 102 10.8303 102 12.7797ZM91.7337 11.6606H100.344C99.8289 9.1335 98.4306 7.83386 96.1492 7.83386C95.0453 7.83386 94.1254 8.15877 93.3159 8.84469C92.5064 9.49451 91.9912 10.4331 91.7337 11.6606Z" fill="black"/>
</svg>
