<svg width="111" height="17" viewBox="0 0 111 17" fill="none" xmlns="http://www.w3.org/2000/svg">
<path d="M17.2354 0.066864H30.7443V3.61411H22.6256V6.55899H30.2785V10.1062H22.6256V13.3858H31.2102V16.8661H17.2354V0.066864Z" fill="#E21F26"/>
<path d="M50.1763 0.066864H55.5666L61.8885 9.37001V0.066864H65.8148V16.9999H60.4245L54.1025 7.83064V16.8661H50.1763V0.066864Z" fill="#E21F26"/>
<path d="M73.8666 0.066864H68.3433V16.8661H73.8666V0.066864Z" fill="#E21F26"/>
<path d="M76.3955 0H81.7192L88.1077 9.23622V0H92.034V16.8661H86.6437L80.3218 7.76378V16.7992H76.3955V0Z" fill="#E21F26"/>
<path d="M41.6584 6.69285H38.5973V3.41332H41.5919C41.5919 3.41332 42.9893 3.61411 42.9228 5.15348C42.7897 6.75978 41.6584 6.69285 41.6584 6.69285ZM48.0469 15.8621C47.9138 15.4606 47.9138 15.7283 47.9803 13.0511C48.0469 10.4409 47.5145 9.70466 47.5145 9.70466C46.7825 8.433 45.8509 8.09836 45.8509 8.09836C45.8509 8.09836 48.1134 7.16135 48.1134 4.41726C48.1134 0.40151 44.2537 0.066864 44.2537 0.066864H33.0739L33.0073 16.8661H38.5973V10.1062H40.4606C40.7267 10.1062 41.4588 10.1732 41.725 10.307C42.2573 10.5747 42.3904 10.8425 42.3904 10.9763C42.5235 11.311 42.457 13.5865 42.457 13.5865C42.457 13.5865 42.457 15.5275 42.6566 16.1299C42.8562 16.7322 43.3221 16.8661 43.3221 16.8661H48.5793C48.5793 16.8661 48.18 16.3306 48.0469 15.8621Z" fill="#E21F26"/>
<path d="M98.6888 9.5708L100.619 4.41726L102.482 9.5708H98.6888ZM104.878 0.066864H97.8902L91.8345 16.8661H95.9604L97.5575 13.0511H103.547L105.144 16.8661H111L104.878 0.066864Z" fill="#E21F26"/>
<path d="M8.65108 6.89363H5.58993V3.61411H8.58453C8.58453 3.61411 9.98201 3.8149 9.91547 5.35427C9.78237 6.96056 8.65108 6.89363 8.65108 6.89363ZM8.65108 13.3858H5.58993V10.1062H8.58453C8.58453 10.1062 9.98201 10.307 9.91547 11.8464C9.78237 13.4527 8.65108 13.3858 8.65108 13.3858ZM13.1763 7.9645C13.1763 7.9645 15.1061 6.82671 15.0396 4.41726C14.9065 0.40151 11.1133 0.066864 11.1133 0.066864H0V16.8661C0 16.8661 12.4442 16.8661 12.045 16.8661C11.6457 16.8661 13.4424 16.8661 14.1745 15.996C14.5072 15.6614 15.705 14.7243 15.7716 12.5157C15.9712 9.50387 13.1763 7.9645 13.1763 7.9645Z" fill="#E21F26"/>
</svg>
